<?xml version="1.0" encoding="UTF-8" standalone="no"?>
<!DOCTYPE svg PUBLIC "-//W3C//DTD SVG 1.1//EN" "http://www.w3.org/Graphics/SVG/1.1/DTD/svg11.dtd">
<svg width="100%" height="100%" viewBox="0 0 142 142" version="1.1" xmlns="http://www.w3.org/2000/svg" xmlns:xlink="http://www.w3.org/1999/xlink" xml:space="preserve" xmlns:serif="http://www.serif.com/" style="fill-rule: evenodd; clip-rule: evenodd; stroke-linejoin: round; stroke-miterlimit: 1.41421;">
    <g transform="matrix(0.274037,0,0,0.348834,-94.4814,-69.9894)">
        <path d="M767.659,230.067L768.413,230.078L769.166,230.097L769.915,230.124L770.663,230.158L771.407,230.2L772.15,230.249L772.889,230.305L773.626,230.368L774.36,230.439L775.092,230.517L775.82,230.603L776.546,230.695L777.268,230.795L777.988,230.901L778.705,231.015L779.418,231.135L780.128,231.263L780.835,231.397L781.538,231.538L782.238,231.686L782.935,231.84L783.628,232.001L784.318,232.169L785.004,232.343L785.686,232.524L786.365,232.712L787.04,232.905L787.711,233.106L788.378,233.312L789.041,233.525L789.7,233.744L790.355,233.969L791.006,234.201L791.653,234.438L792.296,234.682L792.934,234.932L793.568,235.187L794.197,235.449L794.822,235.716L795.442,235.99L796.058,236.269L796.669,236.553L797.276,236.844L797.877,237.14L798.474,237.442L799.066,237.749L799.653,238.062L800.235,238.38L800.812,238.704L801.384,239.033L801.95,239.368L802.512,239.707L803.068,240.052L803.619,240.403L804.164,240.758L804.704,241.118L805.239,241.484L805.767,241.854L806.291,242.23L806.808,242.61L807.32,242.995L807.826,243.385L808.326,243.78L808.82,244.18L809.309,244.584L809.791,244.993L810.267,245.406L810.737,245.824L811.2,246.247L811.658,246.674L812.109,247.105L812.554,247.541L812.992,247.981L813.424,248.425L813.849,248.874L814.268,249.326L814.68,249.783L815.085,250.244L815.483,250.709L815.875,251.178L816.26,251.651L816.637,252.128L817.008,252.608L817.372,253.093L817.728,253.581L818.078,254.073L818.42,254.569L818.754,255.068L819.082,255.571L819.402,256.077L819.714,256.587L820.019,257.1L820.317,257.617L820.606,258.137L820.888,258.66L821.163,259.187L821.429,259.717L821.688,260.25L821.938,260.786L822.181,261.325L822.415,261.867L822.642,262.412L822.86,262.96L823.07,263.511L823.272,264.065L823.465,264.622L823.65,265.181L823.826,265.743L823.994,266.308L824.154,266.875L824.305,267.445L824.447,268.017L824.58,268.592L824.705,269.169L824.82,269.749L824.927,270.331L825.025,270.915L825.114,271.502L825.193,272.091L825.264,272.682L825.325,273.275L825.377,273.87L825.42,274.467L825.453,275.066L825.477,275.667L825.491,276.269L825.496,276.874L825.496,512.085L825.491,512.69L825.477,513.292L825.453,513.893L825.42,514.492L825.377,515.089L825.325,515.684L825.264,516.277L825.193,516.868L825.114,517.457L825.025,518.044L824.927,518.628L824.82,519.21L824.705,519.79L824.58,520.367L824.447,520.942L824.305,521.514L824.154,522.084L823.994,522.651L823.826,523.216L823.65,523.778L823.465,524.337L823.272,524.894L823.07,525.448L822.86,525.999L822.642,526.547L822.415,527.092L822.181,527.634L821.938,528.173L821.688,528.709L821.429,529.242L821.163,529.772L820.888,530.299L820.606,530.822L820.317,531.342L820.019,531.859L819.714,532.372L819.402,532.882L819.082,533.388L818.754,533.891L818.42,534.39L818.078,534.886L817.728,535.378L817.372,535.866L817.008,536.351L816.637,536.831L816.26,537.308L815.875,537.781L815.483,538.25L815.085,538.715L814.68,539.176L814.268,539.633L813.849,540.085L813.424,540.534L812.992,540.978L812.554,541.418L812.109,541.854L811.658,542.285L811.2,542.712L810.737,543.135L810.267,543.553L809.791,543.966L809.309,544.375L808.82,544.779L808.326,545.179L807.826,545.574L807.32,545.964L806.808,546.349L806.291,546.729L805.767,547.105L805.239,547.475L804.704,547.841L804.164,548.201L803.619,548.556L803.068,548.907L802.512,549.252L801.95,549.591L801.384,549.926L800.812,550.255L800.235,550.579L799.653,550.897L799.066,551.21L798.474,551.517L797.877,551.819L797.276,552.115L796.669,552.406L796.058,552.69L795.442,552.969L794.822,553.243L794.197,553.51L793.568,553.772L792.934,554.027L792.296,554.277L791.653,554.521L791.006,554.758L790.355,554.99L789.7,555.215L789.041,555.434L788.378,555.647L787.711,555.853L787.04,556.054L786.365,556.247L785.686,556.435L785.004,556.616L784.318,556.79L783.628,556.958L782.935,557.119L782.238,557.273L781.538,557.421L780.835,557.562L780.128,557.696L779.418,557.824L778.705,557.944L777.988,558.058L777.268,558.164L776.546,558.264L775.82,558.356L775.092,558.442L774.36,558.52L773.626,558.591L772.889,558.654L772.15,558.71L771.407,558.759L770.663,558.801L769.915,558.835L769.166,558.862L768.413,558.881L767.659,558.892L766.902,558.896L440.827,558.896L440.07,558.892L439.316,558.881L438.563,558.862L437.814,558.835L437.066,558.801L436.322,558.759L435.579,558.71L434.84,558.654L434.103,558.591L433.369,558.52L432.637,558.442L431.909,558.356L431.183,558.264L430.461,558.164L429.741,558.058L429.024,557.944L428.311,557.824L427.601,557.696L426.894,557.562L426.191,557.421L425.491,557.273L424.794,557.119L424.101,556.958L423.411,556.79L422.725,556.616L422.043,556.435L421.364,556.247L420.689,556.054L420.018,555.853L419.351,555.647L418.688,555.434L418.029,555.215L417.374,554.99L416.723,554.758L416.076,554.521L415.433,554.277L414.795,554.027L414.161,553.772L413.532,553.51L412.907,553.243L412.287,552.969L411.671,552.69L411.06,552.406L410.453,552.115L409.852,551.819L409.255,551.517L408.663,551.21L408.076,550.897L407.494,550.579L406.917,550.255L406.345,549.926L405.779,549.591L405.217,549.252L404.661,548.907L404.11,548.556L403.565,548.201L403.025,547.841L402.49,547.475L401.962,547.105L401.438,546.729L400.921,546.349L400.409,545.964L399.903,545.574L399.403,545.179L398.909,544.779L398.42,544.375L397.938,543.966L397.462,543.553L396.992,543.135L396.529,542.712L396.071,542.285L395.62,541.854L395.175,541.418L394.737,540.978L394.305,540.534L393.88,540.085L393.461,539.633L393.049,539.176L392.644,538.715L392.246,538.25L391.854,537.781L391.469,537.308L391.092,536.831L390.721,536.351L390.357,535.866L390.001,535.378L389.651,534.886L389.309,534.39L388.975,533.891L388.647,533.388L388.327,532.882L388.015,532.372L387.71,531.859L387.412,531.342L387.123,530.822L386.841,530.299L386.566,529.772L386.3,529.242L386.041,528.709L385.791,528.173L385.548,527.634L385.314,527.092L385.087,526.547L384.869,525.999L384.659,525.448L384.457,524.894L384.264,524.337L384.079,523.778L383.903,523.216L383.735,522.651L383.575,522.084L383.424,521.514L383.282,520.942L383.149,520.367L383.024,519.79L382.909,519.21L382.802,518.628L382.704,518.044L382.615,517.457L382.536,516.868L382.465,516.277L382.404,515.684L382.352,515.089L382.309,514.492L382.276,513.893L382.252,513.292L382.238,512.69L382.233,512.085L382.233,276.874L382.238,276.269L382.252,275.667L382.276,275.066L382.309,274.467L382.352,273.87L382.404,273.275L382.465,272.682L382.536,272.091L382.615,271.502L382.704,270.915L382.802,270.331L382.909,269.749L383.024,269.169L383.149,268.592L383.282,268.017L383.424,267.445L383.575,266.875L383.735,266.308L383.903,265.743L384.079,265.181L384.264,264.622L384.457,264.065L384.659,263.511L384.869,262.96L385.087,262.412L385.314,261.867L385.548,261.325L385.791,260.786L386.041,260.25L386.3,259.717L386.566,259.187L386.841,258.66L387.123,258.137L387.412,257.617L387.71,257.1L388.015,256.587L388.327,256.077L388.647,255.571L388.975,255.068L389.309,254.569L389.651,254.073L390.001,253.581L390.357,253.093L390.721,252.608L391.092,252.128L391.469,251.651L391.854,251.178L392.246,250.709L392.644,250.244L393.049,249.783L393.461,249.326L393.88,248.874L394.305,248.425L394.737,247.981L395.175,247.541L395.62,247.105L396.071,246.674L396.529,246.247L396.992,245.824L397.462,245.406L397.938,244.993L398.42,244.584L398.909,244.18L399.403,243.78L399.903,243.385L400.409,242.995L400.921,242.61L401.438,242.23L401.962,241.854L402.49,241.484L403.025,241.118L403.565,240.758L404.11,240.403L404.661,240.052L405.217,239.707L405.779,239.368L406.345,239.033L406.917,238.704L407.494,238.38L408.076,238.062L408.663,237.749L409.255,237.442L409.852,237.14L410.453,236.844L411.06,236.553L411.671,236.269L412.287,235.99L412.907,235.716L413.532,235.449L414.161,235.187L414.795,234.932L415.433,234.682L416.076,234.438L416.723,234.201L417.374,233.969L418.029,233.744L418.688,233.525L419.351,233.312L420.018,233.106L420.689,232.905L421.364,232.712L422.043,232.524L422.725,232.343L423.411,232.169L424.101,232.001L424.794,231.84L425.491,231.686L426.191,231.538L426.894,231.397L427.601,231.263L428.311,231.135L429.024,231.015L429.741,230.901L430.461,230.795L431.183,230.695L431.909,230.603L432.637,230.517L433.369,230.439L434.103,230.368L434.84,230.305L435.579,230.249L436.322,230.2L437.066,230.158L437.814,230.124L438.563,230.097L439.316,230.078L440.07,230.067L440.827,230.063L766.902,230.063L767.659,230.067ZM440.851,235.796L440.164,235.8L439.504,235.81L438.846,235.827L438.19,235.85L437.536,235.88L436.885,235.916L436.237,235.959L435.59,236.008L434.947,236.064L434.305,236.125L433.667,236.194L433.031,236.268L432.397,236.349L431.766,236.436L431.138,236.529L430.513,236.628L429.89,236.733L429.271,236.844L428.654,236.961L428.04,237.084L427.429,237.213L426.821,237.348L426.216,237.489L425.614,237.635L425.015,237.787L424.419,237.945L423.827,238.109L423.238,238.278L422.652,238.453L422.069,238.633L421.49,238.819L420.914,239.01L420.342,239.207L419.773,239.409L419.208,239.617L418.647,239.83L418.089,240.048L417.535,240.272L416.984,240.5L416.438,240.734L415.895,240.973L415.357,241.217L414.822,241.467L414.291,241.721L413.765,241.98L413.242,242.244L412.724,242.513L412.21,242.787L411.7,243.066L411.195,243.35L410.694,243.638L410.197,243.931L409.705,244.229L409.218,244.531L408.735,244.838L408.257,245.149L407.784,245.465L407.315,245.786L406.851,246.111L406.392,246.44L405.938,246.773L405.49,247.111L405.046,247.454L404.607,247.8L404.173,248.151L403.745,248.505L403.322,248.864L402.904,249.227L402.491,249.594L402.084,249.965L401.683,250.339L401.287,250.718L400.896,251.101L400.512,251.487L400.132,251.877L399.759,252.271L399.392,252.668L399.03,253.069L398.674,253.474L398.324,253.882L397.98,254.294L397.643,254.709L397.311,255.128L396.985,255.55L396.666,255.975L396.353,256.404L396.046,256.836L395.746,257.271L395.452,257.709L395.165,258.151L394.884,258.595L394.609,259.043L394.342,259.494L394.081,259.947L393.826,260.404L393.579,260.863L393.338,261.326L393.104,261.791L392.877,262.259L392.657,262.729L392.444,263.203L392.238,263.679L392.039,264.157L391.848,264.638L391.663,265.122L391.486,265.608L391.317,266.097L391.154,266.588L390.999,267.082L390.852,267.578L390.711,268.076L390.579,268.577L390.454,269.08L390.337,269.585L390.228,270.092L390.126,270.602L390.032,271.114L389.946,271.627L389.868,272.143L389.798,272.661L389.736,273.181L389.682,273.703L389.636,274.227L389.599,274.752L389.569,275.28L389.548,275.81L389.536,276.341L389.531,276.892L389.531,512.067L389.536,512.618L389.548,513.149L389.569,513.679L389.599,514.207L389.636,514.732L389.682,515.256L389.736,515.778L389.798,516.298L389.868,516.816L389.946,517.332L390.032,517.845L390.126,518.357L390.228,518.867L390.337,519.374L390.454,519.879L390.579,520.382L390.711,520.883L390.852,521.381L390.999,521.877L391.154,522.371L391.317,522.862L391.486,523.351L391.663,523.837L391.848,524.321L392.039,524.802L392.238,525.28L392.444,525.756L392.657,526.23L392.877,526.7L393.104,527.168L393.338,527.633L393.579,528.096L393.826,528.555L394.081,529.012L394.342,529.465L394.609,529.916L394.884,530.363L395.165,530.808L395.452,531.25L395.746,531.688L396.046,532.123L396.353,532.555L396.666,532.984L396.985,533.409L397.311,533.831L397.643,534.25L397.98,534.665L398.324,535.077L398.674,535.485L399.03,535.89L399.391,536.291L399.759,536.688L400.132,537.082L400.512,537.472L400.896,537.858L401.287,538.241L401.683,538.619L402.084,538.994L402.491,539.365L402.904,539.732L403.322,540.095L403.745,540.454L404.173,540.808L404.607,541.159L405.046,541.505L405.49,541.848L405.938,542.186L406.392,542.519L406.851,542.848L407.315,543.173L407.784,543.494L408.257,543.81L408.735,544.121L409.218,544.428L409.705,544.73L410.197,545.028L410.694,545.321L411.195,545.61L411.7,545.893L412.21,546.172L412.724,546.446L413.242,546.715L413.765,546.979L414.291,547.238L414.822,547.492L415.356,547.742L415.895,547.986L416.438,548.225L416.984,548.459L417.535,548.687L418.089,548.911L418.647,549.129L419.208,549.342L419.773,549.55L420.342,549.752L420.914,549.949L421.49,550.14L422.069,550.326L422.652,550.506L423.238,550.681L423.827,550.85L424.419,551.014L425.015,551.172L425.614,551.324L426.216,551.47L426.821,551.611L427.429,551.746L428.04,551.875L428.654,551.998L429.271,552.115L429.89,552.226L430.513,552.331L431.138,552.43L431.766,552.523L432.397,552.61L433.03,552.691L433.666,552.765L434.305,552.834L434.947,552.895L435.59,552.951L436.237,553L436.885,553.043L437.536,553.079L438.19,553.109L438.846,553.132L439.504,553.149L440.164,553.159L440.851,553.163L766.878,553.163L767.565,553.159L768.225,553.149L768.883,553.132L769.539,553.109L770.193,553.079L770.844,553.043L771.492,553L772.139,552.951L772.782,552.895L773.424,552.834L774.063,552.765L774.698,552.691L775.332,552.61L775.963,552.523L776.591,552.43L777.216,552.331L777.839,552.226L778.458,552.115L779.075,551.998L779.689,551.875L780.3,551.746L780.908,551.611L781.513,551.47L782.115,551.324L782.714,551.172L783.31,551.014L783.902,550.85L784.491,550.681L785.077,550.506L785.66,550.326L786.239,550.14L786.815,549.949L787.387,549.752L787.956,549.55L788.521,549.342L789.082,549.129L789.64,548.911L790.194,548.687L790.745,548.459L791.291,548.225L791.834,547.986L792.372,547.742L792.907,547.492L793.438,547.238L793.964,546.979L794.487,546.715L795.005,546.446L795.519,546.172L796.029,545.893L796.534,545.61L797.035,545.321L797.532,545.028L798.024,544.73L798.511,544.428L798.994,544.121L799.472,543.81L799.945,543.494L800.414,543.173L800.878,542.848L801.337,542.519L801.791,542.185L802.239,541.848L802.683,541.505L803.122,541.159L803.556,540.808L803.984,540.454L804.407,540.095L804.825,539.732L805.238,539.365L805.645,538.994L806.046,538.619L806.442,538.241L806.833,537.858L807.218,537.472L807.597,537.082L807.97,536.688L808.337,536.291L808.699,535.889L809.055,535.485L809.405,535.077L809.749,534.665L810.086,534.25L810.418,533.831L810.744,533.409L811.063,532.984L811.376,532.555L811.683,532.123L811.983,531.688L812.277,531.25L812.564,530.808L812.845,530.363L813.12,529.916L813.387,529.465L813.648,529.012L813.903,528.555L814.15,528.096L814.391,527.633L814.625,527.168L814.852,526.7L815.072,526.23L815.285,525.756L815.491,525.28L815.689,524.802L815.881,524.321L816.066,523.837L816.243,523.351L816.412,522.862L816.575,522.371L816.73,521.877L816.877,521.381L817.018,520.883L817.15,520.382L817.275,519.879L817.392,519.374L817.501,518.866L817.603,518.357L817.697,517.846L817.783,517.332L817.861,516.816L817.931,516.298L817.993,515.778L818.047,515.256L818.093,514.732L818.13,514.207L818.16,513.679L818.181,513.149L818.193,512.618L818.198,512.067L818.198,276.892L818.193,276.341L818.181,275.81L818.16,275.28L818.13,274.752L818.093,274.227L818.047,273.703L817.993,273.181L817.931,272.661L817.861,272.143L817.783,271.627L817.697,271.113L817.603,270.602L817.501,270.093L817.392,269.585L817.275,269.08L817.15,268.577L817.018,268.076L816.877,267.578L816.73,267.082L816.575,266.588L816.412,266.097L816.243,265.608L816.066,265.122L815.881,264.638L815.689,264.157L815.491,263.678L815.285,263.203L815.072,262.729L814.852,262.259L814.625,261.791L814.391,261.326L814.15,260.863L813.903,260.404L813.648,259.947L813.387,259.494L813.12,259.043L812.845,258.595L812.564,258.151L812.277,257.709L811.983,257.271L811.683,256.836L811.376,256.404L811.063,255.975L810.744,255.55L810.418,255.128L810.086,254.709L809.749,254.294L809.405,253.882L809.055,253.474L808.699,253.069L808.337,252.668L807.97,252.271L807.597,251.877L807.218,251.487L806.833,251.101L806.442,250.718L806.046,250.34L805.645,249.965L805.238,249.594L804.825,249.227L804.407,248.864L803.984,248.505L803.556,248.151L803.122,247.8L802.683,247.454L802.239,247.111L801.791,246.773L801.337,246.44L800.878,246.111L800.414,245.786L799.945,245.465L799.472,245.149L798.994,244.838L798.511,244.531L798.024,244.229L797.532,243.931L797.035,243.638L796.534,243.35L796.029,243.066L795.519,242.787L795.005,242.513L794.487,242.244L793.964,241.98L793.438,241.721L792.907,241.467L792.372,241.217L791.834,240.973L791.291,240.734L790.745,240.5L790.194,240.272L789.64,240.048L789.082,239.83L788.521,239.617L787.956,239.409L787.387,239.207L786.815,239.01L786.239,238.819L785.66,238.633L785.077,238.453L784.491,238.278L783.902,238.109L783.31,237.945L782.714,237.787L782.115,237.635L781.513,237.489L780.908,237.348L780.3,237.213L779.689,237.084L779.075,236.961L778.458,236.844L777.839,236.733L777.216,236.628L776.591,236.529L775.963,236.436L775.332,236.349L774.698,236.268L774.062,236.194L773.424,236.125L772.782,236.064L772.139,236.008L771.492,235.959L770.844,235.916L770.193,235.88L769.539,235.85L768.883,235.827L768.225,235.81L767.565,235.8L766.878,235.796L440.851,235.796Z"/>
    </g>
    <g transform="matrix(0.288684,0,0,0.389143,-103.326,-82.509)">
        <path d="M767.659,230.067L768.413,230.077L769.166,230.095L769.915,230.12L770.663,230.151L771.407,230.19L772.15,230.235L772.889,230.288L773.626,230.347L774.36,230.412L775.092,230.485L775.82,230.564L776.546,230.65L777.268,230.742L777.988,230.841L778.705,230.947L779.418,231.059L780.128,231.177L780.835,231.302L781.538,231.432L782.238,231.57L782.935,231.713L783.628,231.863L784.318,232.019L785.004,232.18L785.686,232.348L786.365,232.522L787.04,232.702L787.711,232.888L788.378,233.08L789.041,233.278L789.7,233.481L790.355,233.69L791.006,233.905L791.653,234.126L792.296,234.352L792.934,234.584L793.568,234.821L794.197,235.064L794.822,235.312L795.442,235.566L796.058,235.825L796.669,236.09L797.276,236.36L797.877,236.635L798.474,236.915L799.066,237.2L799.653,237.491L800.235,237.786L800.812,238.087L801.384,238.393L801.95,238.703L802.512,239.019L803.068,239.339L803.619,239.664L804.164,239.994L804.704,240.329L805.239,240.668L805.767,241.012L806.291,241.361L806.808,241.714L807.32,242.071L807.826,242.434L808.326,242.8L808.82,243.171L809.309,243.547L809.791,243.926L810.267,244.31L810.737,244.698L811.2,245.091L811.658,245.487L812.109,245.888L812.554,246.292L812.992,246.701L813.424,247.113L813.849,247.53L814.268,247.95L814.68,248.375L815.085,248.803L815.483,249.234L815.875,249.67L816.26,250.109L816.637,250.552L817.008,250.998L817.372,251.448L817.728,251.901L818.078,252.358L818.42,252.818L818.754,253.282L819.082,253.749L819.402,254.219L819.714,254.692L820.019,255.169L820.317,255.649L820.606,256.132L820.888,256.617L821.163,257.106L821.429,257.598L821.688,258.093L821.938,258.591L822.181,259.092L822.415,259.595L822.642,260.101L822.86,260.61L823.07,261.122L823.272,261.636L823.465,262.153L823.65,262.672L823.826,263.194L823.994,263.719L824.154,264.245L824.305,264.775L824.447,265.306L824.58,265.84L824.705,266.376L824.82,266.914L824.927,267.455L825.025,267.997L825.114,268.542L825.193,269.088L825.264,269.637L825.325,270.188L825.377,270.74L825.42,271.295L825.453,271.851L825.477,272.409L825.491,272.969L825.496,273.53L825.496,515.428L825.491,515.989L825.477,516.549L825.453,517.107L825.42,517.663L825.377,518.218L825.325,518.77L825.264,519.321L825.193,519.87L825.114,520.416L825.025,520.961L824.927,521.504L824.82,522.044L824.705,522.582L824.58,523.118L824.447,523.652L824.305,524.184L824.154,524.713L823.994,525.24L823.826,525.764L823.65,526.286L823.465,526.805L823.272,527.322L823.07,527.837L822.86,528.348L822.642,528.857L822.415,529.363L822.181,529.867L821.938,530.367L821.688,530.865L821.429,531.36L821.163,531.852L820.888,532.341L820.606,532.827L820.317,533.31L820.019,533.79L819.714,534.266L819.402,534.74L819.082,535.21L818.754,535.677L818.42,536.14L818.078,536.601L817.728,537.058L817.372,537.511L817.008,537.961L816.637,538.407L816.26,538.85L815.875,539.289L815.483,539.724L815.085,540.156L814.68,540.584L814.268,541.008L813.849,541.429L813.424,541.845L812.992,542.258L812.554,542.667L812.109,543.071L811.658,543.472L811.2,543.868L810.737,544.261L810.267,544.649L809.791,545.033L809.309,545.412L808.82,545.788L808.326,546.159L807.826,546.525L807.32,546.887L806.808,547.245L806.291,547.598L805.767,547.947L805.239,548.291L804.704,548.63L804.164,548.965L803.619,549.295L803.068,549.62L802.512,549.94L801.95,550.256L801.384,550.566L800.812,550.872L800.235,551.173L799.653,551.468L799.066,551.759L798.474,552.044L797.877,552.324L797.276,552.599L796.669,552.869L796.058,553.134L795.442,553.393L794.822,553.646L794.197,553.895L793.568,554.138L792.934,554.375L792.296,554.607L791.653,554.833L791.006,555.054L790.355,555.269L789.7,555.478L789.041,555.681L788.378,555.879L787.711,556.071L787.04,556.257L786.365,556.437L785.686,556.611L785.004,556.779L784.318,556.94L783.628,557.096L782.935,557.246L782.238,557.389L781.538,557.527L780.835,557.657L780.128,557.782L779.418,557.9L778.705,558.012L777.988,558.118L777.268,558.217L776.546,558.309L775.82,558.395L775.092,558.474L774.36,558.547L773.626,558.612L772.889,558.671L772.15,558.724L771.407,558.769L770.663,558.808L769.915,558.839L769.166,558.864L768.413,558.882L767.659,558.892L766.902,558.896L440.827,558.896L440.07,558.892L439.316,558.882L438.563,558.864L437.814,558.839L437.066,558.808L436.322,558.769L435.579,558.724L434.84,558.671L434.103,558.612L433.369,558.547L432.637,558.474L431.909,558.395L431.183,558.309L430.461,558.217L429.741,558.118L429.024,558.012L428.311,557.9L427.601,557.782L426.894,557.657L426.191,557.527L425.491,557.389L424.794,557.246L424.101,557.096L423.411,556.94L422.725,556.779L422.043,556.611L421.364,556.437L420.689,556.257L420.018,556.071L419.351,555.879L418.688,555.681L418.029,555.478L417.374,555.269L416.723,555.054L416.076,554.833L415.433,554.607L414.795,554.375L414.161,554.138L413.532,553.895L412.907,553.646L412.287,553.393L411.671,553.134L411.06,552.869L410.453,552.599L409.852,552.324L409.255,552.044L408.663,551.759L408.076,551.468L407.494,551.173L406.917,550.872L406.345,550.566L405.779,550.256L405.217,549.94L404.661,549.62L404.11,549.295L403.565,548.965L403.025,548.63L402.49,548.291L401.962,547.947L401.438,547.598L400.921,547.245L400.409,546.887L399.903,546.525L399.403,546.159L398.909,545.788L398.42,545.412L397.938,545.033L397.462,544.649L396.992,544.261L396.529,543.868L396.071,543.472L395.62,543.071L395.175,542.667L394.737,542.258L394.305,541.845L393.88,541.429L393.461,541.008L393.049,540.584L392.644,540.156L392.246,539.724L391.854,539.289L391.469,538.85L391.092,538.407L390.721,537.961L390.357,537.511L390.001,537.058L389.651,536.601L389.309,536.14L388.975,535.677L388.647,535.21L388.327,534.74L388.015,534.266L387.71,533.79L387.412,533.31L387.123,532.827L386.841,532.341L386.566,531.852L386.3,531.36L386.041,530.865L385.791,530.367L385.548,529.867L385.314,529.363L385.087,528.857L384.869,528.348L384.659,527.837L384.457,527.322L384.264,526.805L384.079,526.286L383.903,525.764L383.735,525.24L383.575,524.713L383.424,524.184L383.282,523.652L383.149,523.118L383.024,522.582L382.909,522.044L382.802,521.504L382.704,520.961L382.615,520.416L382.536,519.87L382.465,519.321L382.404,518.77L382.352,518.218L382.309,517.663L382.276,517.107L382.252,516.549L382.238,515.989L382.233,515.428L382.233,273.53L382.238,272.969L382.252,272.409L382.276,271.851L382.309,271.295L382.352,270.74L382.404,270.188L382.465,269.637L382.536,269.088L382.615,268.542L382.704,267.997L382.802,267.455L382.909,266.914L383.024,266.376L383.149,265.84L383.282,265.306L383.424,264.775L383.575,264.245L383.735,263.719L383.903,263.194L384.079,262.672L384.264,262.153L384.457,261.636L384.659,261.122L384.869,260.61L385.087,260.101L385.314,259.595L385.548,259.092L385.791,258.591L386.041,258.093L386.3,257.598L386.566,257.106L386.841,256.617L387.123,256.132L387.412,255.649L387.71,255.169L388.015,254.692L388.327,254.219L388.647,253.749L388.975,253.282L389.309,252.818L389.651,252.358L390.001,251.901L390.357,251.448L390.721,250.998L391.092,250.552L391.469,250.109L391.854,249.67L392.246,249.234L392.644,248.803L393.049,248.375L393.461,247.95L393.88,247.53L394.305,247.113L394.737,246.701L395.175,246.292L395.62,245.888L396.071,245.487L396.529,245.091L396.992,244.698L397.462,244.31L397.938,243.926L398.42,243.547L398.909,243.171L399.403,242.8L399.903,242.434L400.409,242.071L400.921,241.714L401.438,241.361L401.962,241.012L402.49,240.668L403.025,240.329L403.565,239.994L404.11,239.664L404.661,239.339L405.217,239.019L405.779,238.703L406.345,238.393L406.917,238.087L407.494,237.786L408.076,237.491L408.663,237.2L409.255,236.915L409.852,236.635L410.453,236.36L411.06,236.09L411.671,235.825L412.287,235.566L412.907,235.312L413.532,235.064L414.161,234.821L414.795,234.584L415.433,234.352L416.076,234.126L416.723,233.905L417.374,233.69L418.029,233.481L418.688,233.278L419.351,233.08L420.018,232.888L420.689,232.702L421.364,232.522L422.043,232.348L422.725,232.18L423.411,232.019L424.101,231.863L424.794,231.713L425.491,231.57L426.191,231.432L426.894,231.302L427.601,231.177L428.311,231.059L429.024,230.947L429.741,230.841L430.461,230.742L431.183,230.65L431.909,230.564L432.637,230.485L433.369,230.412L434.103,230.347L434.84,230.288L435.579,230.235L436.322,230.19L437.066,230.151L437.814,230.12L438.563,230.095L439.316,230.077L440.07,230.067L440.827,230.063L766.902,230.063L767.659,230.067ZM440.882,242.912L440.29,242.915L439.755,242.922L439.222,242.935L438.692,242.952L438.163,242.974L437.637,243.002L437.113,243.034L436.592,243.071L436.072,243.112L435.555,243.159L435.04,243.21L434.528,243.265L434.017,243.326L433.509,243.391L433.004,243.46L432.5,243.534L431.999,243.613L431.501,243.696L431.004,243.783L430.51,243.875L430.019,243.972L429.53,244.072L429.043,244.177L428.559,244.287L428.078,244.4L427.599,244.518L427.122,244.641L426.648,244.767L426.177,244.897L425.709,245.032L425.243,245.171L424.78,245.314L424.32,245.461L423.862,245.612L423.407,245.767L422.956,245.926L422.507,246.089L422.061,246.256L421.618,246.427L421.178,246.602L420.742,246.78L420.308,246.963L419.877,247.149L419.45,247.339L419.026,247.533L418.606,247.731L418.188,247.932L417.774,248.137L417.364,248.345L416.957,248.557L416.553,248.773L416.153,248.992L415.757,249.215L415.364,249.441L414.975,249.67L414.59,249.903L414.209,250.14L413.831,250.379L413.458,250.622L413.088,250.869L412.723,251.118L412.361,251.371L412.004,251.627L411.65,251.886L411.301,252.148L410.956,252.413L410.615,252.681L410.279,252.953L409.947,253.227L409.619,253.504L409.296,253.784L408.978,254.067L408.664,254.353L408.354,254.641L408.049,254.933L407.749,255.227L407.454,255.523L407.163,255.823L406.877,256.124L406.596,256.429L406.32,256.736L406.049,257.046L405.782,257.358L405.521,257.672L405.265,257.989L405.014,258.309L404.768,258.63L404.527,258.954L404.291,259.28L404.061,259.609L403.836,259.94L403.616,260.273L403.402,260.608L403.193,260.945L402.989,261.284L402.791,261.626L402.598,261.969L402.411,262.315L402.23,262.662L402.054,263.012L401.883,263.364L401.719,263.717L401.56,264.072L401.407,264.429L401.259,264.789L401.118,265.15L400.982,265.512L400.852,265.877L400.728,266.243L400.61,266.611L400.498,266.981L400.392,267.353L400.292,267.727L400.199,268.102L400.111,268.479L400.03,268.857L399.955,269.237L399.886,269.619L399.823,270.003L399.767,270.388L399.718,270.775L399.674,271.164L399.638,271.554L399.607,271.946L399.584,272.34L399.567,272.735L399.557,273.131L399.553,273.571L399.553,515.387L399.557,515.827L399.567,516.223L399.584,516.619L399.607,517.012L399.638,517.404L399.674,517.794L399.718,518.183L399.767,518.57L399.823,518.955L399.886,519.339L399.955,519.721L400.03,520.101L400.111,520.48L400.199,520.857L400.292,521.232L400.392,521.605L400.498,521.977L400.61,522.347L400.728,522.715L400.852,523.082L400.982,523.446L401.118,523.809L401.259,524.17L401.407,524.529L401.56,524.886L401.719,525.242L401.883,525.595L402.054,525.947L402.23,526.296L402.411,526.644L402.598,526.989L402.791,527.333L402.989,527.674L403.193,528.014L403.402,528.351L403.616,528.686L403.836,529.019L404.061,529.35L404.292,529.678L404.527,530.005L404.768,530.329L405.014,530.65L405.265,530.97L405.521,531.287L405.783,531.601L406.049,531.913L406.32,532.223L406.596,532.53L406.877,532.834L407.163,533.136L407.454,533.436L407.749,533.732L408.049,534.026L408.354,534.318L408.664,534.606L408.978,534.892L409.296,535.175L409.62,535.455L409.947,535.732L410.279,536.006L410.615,536.278L410.956,536.546L411.301,536.811L411.65,537.073L412.004,537.332L412.361,537.588L412.723,537.841L413.088,538.09L413.458,538.336L413.831,538.579L414.209,538.819L414.59,539.056L414.975,539.289L415.365,539.518L415.757,539.744L416.153,539.967L416.553,540.186L416.957,540.402L417.364,540.614L417.774,540.822L418.189,541.027L418.606,541.228L419.026,541.426L419.45,541.62L419.878,541.81L420.308,541.996L420.742,542.179L421.178,542.357L421.618,542.532L422.061,542.703L422.507,542.87L422.956,543.033L423.407,543.192L423.862,543.347L424.32,543.498L424.78,543.645L425.243,543.788L425.708,543.927L426.177,544.062L426.648,544.192L427.122,544.318L427.599,544.441L428.078,544.559L428.559,544.672L429.043,544.782L429.53,544.887L430.019,544.987L430.51,545.084L431.004,545.176L431.501,545.263L431.999,545.346L432.5,545.425L433.004,545.499L433.509,545.568L434.018,545.633L434.528,545.694L435.04,545.749L435.555,545.8L436.073,545.847L436.592,545.888L437.113,545.925L437.637,545.957L438.163,545.985L438.692,546.007L439.223,546.024L439.755,546.037L440.29,546.044L440.882,546.047L766.847,546.047L767.439,546.044L767.974,546.037L768.506,546.024L769.037,546.007L769.566,545.985L770.092,545.957L770.616,545.925L771.137,545.888L771.656,545.847L772.174,545.8L772.689,545.749L773.201,545.694L773.711,545.633L774.22,545.568L774.725,545.499L775.229,545.425L775.73,545.346L776.228,545.263L776.725,545.176L777.219,545.084L777.71,544.987L778.199,544.887L778.686,544.782L779.17,544.672L779.651,544.559L780.13,544.441L780.607,544.318L781.081,544.192L781.552,544.062L782.021,543.927L782.486,543.788L782.949,543.645L783.409,543.498L783.867,543.347L784.322,543.192L784.773,543.033L785.222,542.87L785.668,542.703L786.111,542.532L786.551,542.357L786.987,542.179L787.421,541.996L787.851,541.81L788.279,541.62L788.703,541.426L789.123,541.228L789.541,541.027L789.955,540.822L790.365,540.614L790.772,540.402L791.176,540.186L791.576,539.967L791.972,539.744L792.364,539.518L792.754,539.288L793.139,539.056L793.52,538.819L793.897,538.58L794.271,538.337L794.641,538.09L795.006,537.841L795.368,537.588L795.725,537.332L796.079,537.073L796.428,536.811L796.773,536.545L797.114,536.278L797.45,536.006L797.782,535.732L798.109,535.455L798.433,535.174L798.751,534.892L799.065,534.606L799.375,534.318L799.68,534.026L799.98,533.732L800.275,533.436L800.566,533.136L800.852,532.834L801.133,532.53L801.409,532.222L801.68,531.913L801.946,531.601L802.208,531.287L802.464,530.97L802.715,530.65L802.961,530.329L803.202,530.005L803.437,529.678L803.668,529.35L803.893,529.019L804.113,528.686L804.327,528.351L804.536,528.013L804.74,527.674L804.938,527.333L805.131,526.989L805.318,526.644L805.499,526.296L805.675,525.946L805.846,525.595L806.01,525.242L806.169,524.886L806.322,524.529L806.47,524.17L806.611,523.809L806.747,523.446L806.877,523.082L807.001,522.715L807.119,522.347L807.231,521.977L807.337,521.605L807.437,521.232L807.53,520.857L807.618,520.479L807.699,520.101L807.774,519.721L807.843,519.339L807.906,518.955L807.962,518.57L808.011,518.183L808.055,517.794L808.091,517.404L808.122,517.012L808.145,516.618L808.162,516.223L808.172,515.827L808.176,515.387L808.176,273.571L808.172,273.131L808.162,272.735L808.145,272.34L808.122,271.946L808.091,271.554L808.055,271.164L808.011,270.775L807.962,270.388L807.906,270.003L807.843,269.619L807.774,269.237L807.699,268.857L807.618,268.479L807.53,268.102L807.437,267.727L807.337,267.353L807.231,266.981L807.119,266.612L807.001,266.243L806.877,265.877L806.747,265.512L806.611,265.149L806.47,264.789L806.322,264.43L806.169,264.072L806.01,263.717L805.846,263.364L805.675,263.012L805.499,262.662L805.318,262.315L805.131,261.97L804.938,261.626L804.74,261.284L804.536,260.945L804.327,260.608L804.113,260.273L803.893,259.94L803.668,259.609L803.438,259.28L803.202,258.954L802.961,258.63L802.715,258.308L802.464,257.989L802.208,257.672L801.947,257.358L801.68,257.046L801.409,256.736L801.133,256.429L800.852,256.124L800.566,255.822L800.275,255.523L799.98,255.227L799.68,254.933L799.375,254.641L799.065,254.353L798.751,254.067L798.433,253.784L798.11,253.504L797.782,253.227L797.45,252.953L797.114,252.681L796.773,252.413L796.428,252.148L796.079,251.886L795.726,251.627L795.368,251.371L795.007,251.118L794.641,250.869L794.271,250.622L793.897,250.379L793.52,250.14L793.139,249.903L792.754,249.671L792.364,249.441L791.972,249.214L791.576,248.992L791.176,248.773L790.772,248.557L790.365,248.345L789.955,248.137L789.541,247.932L789.123,247.73L788.703,247.533L788.279,247.339L787.852,247.149L787.421,246.963L786.987,246.78L786.551,246.602L786.111,246.427L785.668,246.256L785.222,246.089L784.773,245.926L784.322,245.767L783.867,245.612L783.41,245.461L782.949,245.314L782.486,245.171L782.02,245.032L781.552,244.897L781.081,244.767L780.607,244.641L780.13,244.518L779.651,244.4L779.17,244.287L778.686,244.177L778.199,244.072L777.71,243.972L777.219,243.875L776.725,243.784L776.228,243.696L775.73,243.613L775.229,243.534L774.725,243.46L774.22,243.391L773.712,243.326L773.201,243.265L772.689,243.21L772.174,243.159L771.657,243.112L771.137,243.071L770.616,243.034L770.092,243.002L769.566,242.974L769.037,242.952L768.507,242.935L767.974,242.922L767.439,242.915L766.847,242.912L440.882,242.912Z"/>
    </g>
    <g transform="matrix(0.914018,0,0,0.914018,6.10471,7.4004)">
        <path d="M111,92L71,54L31,92L71,41L111,92Z"/>
    </g>
</svg>
