<?xml version="1.0" encoding="UTF-8" standalone="no"?>
<!DOCTYPE svg PUBLIC "-//W3C//DTD SVG 1.1//EN" "http://www.w3.org/Graphics/SVG/1.1/DTD/svg11.dtd">
<svg width="100%" height="100%" viewBox="0 0 799 181" version="1.1" xmlns="http://www.w3.org/2000/svg" xmlns:xlink="http://www.w3.org/1999/xlink" xml:space="preserve" xmlns:serif="http://www.serif.com/" style="fill-rule:evenodd;clip-rule:evenodd;stroke-linecap:round;stroke-linejoin:round;stroke-miterlimit:1.5;">
    <g transform="matrix(1,0,0,1,-579.842,-1932.24)">
        <g transform="matrix(2.05776,0,0,4.11551,328.357,4692.09)">
            <g id="LandingSeperator">
                <g transform="matrix(0.485432,0,0,0.242716,-71.3156,-790.988)">
                    <path d="M884.539,528.8C884.539,537.64 877.361,544.817 868.521,544.817C859.681,544.817 852.503,537.64 852.503,528.8" style="fill:none;stroke:#263238;stroke-width:4px;"/>
                </g>
                <g transform="matrix(1.41441e-17,0.0624814,0.124963,1.76802e-17,206.661,-719.472)">
                    <path d="M790,505.782C790,525.112 805.67,540.782 825,540.782C805.67,540.782 790,525.112 790,505.782Z" style="fill:none;stroke:#263238;stroke-width:15.56px;"/>
                </g>
                <g transform="matrix(-1.41441e-17,0.0624814,-0.124963,1.76802e-17,357.367,-714.426)">
                    <path d="M825,470.782C805.67,470.782 790,486.452 790,505.782C790,525.112 805.67,540.782 825,540.782C805.67,540.782 790,525.112 790,505.782C790,486.452 805.67,470.782 825,470.782Z" style="fill:none;stroke:#263238;stroke-width:15.56px;"/>
                </g>
                <g transform="matrix(-0.485966,0,0,0.0662681,621.928,-700.466)">
                    <path d="M715.461,496.047L715.461,527.782" style="fill:none;stroke:#263238;stroke-width:5.46px;"/>
                </g>
                <g transform="matrix(-0.485966,0,0,0.0109738,621.928,-669.343)">
                    <path d="M715.461,472.782L715.461,505.64" style="fill:none;stroke:#263238;stroke-width:5.65px;"/>
                </g>
                <g transform="matrix(-0.485432,0,0,0.242716,703.621,-790.81)">
                    <path d="M884.539,528.8C884.539,537.64 877.361,544.817 868.521,544.817C859.681,544.817 852.503,537.64 852.503,528.8" style="fill:none;stroke:#263238;stroke-width:4px;"/>
                </g>
                <g transform="matrix(0.531475,0,0,0.265738,-154.557,-795.018)">
                    <path d="M884.539,528.8C884.539,537.64 877.361,544.817 868.521,544.817C859.681,544.817 852.503,537.64 852.503,528.8" style="fill:none;stroke:#263238;stroke-width:3.66px;"/>
                </g>
                <g transform="matrix(0.485966,0,0,0.242983,-35.3136,-773.262)">
                    <path d="M716,503.266L716,528.266" style="fill:none;stroke:#263238;stroke-width:4px;"/>
                </g>
                <g transform="matrix(0.485966,0,0,0.163234,-18.043,-731.172)">
                    <path d="M715.461,472.782L715.461,527.782" style="fill:none;stroke:#263238;stroke-width:4.7px;"/>
                </g>
                <g transform="matrix(0.531475,0,0,0.265738,-140.464,-784.209)">
                    <path d="M884.539,528.8C884.539,537.64 877.361,544.817 868.521,544.817C859.681,544.817 852.503,537.64 852.503,528.8" style="fill:none;stroke:#263238;stroke-width:3.66px;"/>
                </g>
                <g transform="matrix(0.485966,0,0,0.0662681,10.3775,-700.644)">
                    <path d="M715.461,496.047L715.461,527.782" style="fill:none;stroke:#263238;stroke-width:5.46px;"/>
                </g>
                <g transform="matrix(0.485966,0,0,0.0109738,10.3775,-669.521)">
                    <path d="M715.461,472.782L715.461,527.782" style="fill:none;stroke:#263238;stroke-width:5.65px;"/>
                </g>
                <g transform="matrix(0.531475,0,0,0.265738,-127.594,-798.177)">
                    <path d="M884.539,528.8C884.539,537.64 877.361,544.817 868.521,544.817C859.681,544.817 852.503,537.64 852.503,528.8" style="fill:none;stroke:#263238;stroke-width:3.66px;"/>
                </g>
                <g transform="matrix(0.485966,0,0,0.242983,-49.4066,-784.07)">
                    <path d="M716,503.266L716,528.266" style="fill:none;stroke:#263238;stroke-width:4px;"/>
                </g>
                <g transform="matrix(0.485966,0,0,0.0662681,-32.136,-690.803)">
                    <path d="M715.461,472.782L715.461,527.782" style="fill:none;stroke:#263238;stroke-width:5.46px;"/>
                </g>
                <g transform="matrix(-1.41441e-17,0.0624814,-0.124963,1.76802e-17,425.645,-719.407)">
                    <path d="M790,505.782C790,525.112 805.67,540.782 825,540.782C805.67,540.782 790,525.112 790,505.782Z" style="fill:none;stroke:#263238;stroke-width:15.56px;"/>
                </g>
                <g transform="matrix(0.485966,0,0,0.242983,-22.4441,-787.229)">
                    <path d="M716,503.266L716,528.266" style="fill:none;stroke:#263238;stroke-width:4px;"/>
                </g>
                <g transform="matrix(0.485966,0,0,0.0662681,-5.17345,-693.962)">
                    <path d="M715.461,472.782L715.461,527.782" style="fill:none;stroke:#263238;stroke-width:5.46px;"/>
                </g>
                <g transform="matrix(0.485966,0,0,0.242983,-72.4986,-779.454)">
                    <path d="M699.561,450L402.669,450" style="fill:none;stroke:#263238;stroke-width:4px;"/>
                </g>
                <g transform="matrix(-0.485966,0,0,0.242983,705.047,-779.454)">
                    <path d="M699.561,450L402.669,450" style="fill:none;stroke:#263238;stroke-width:4px;"/>
                </g>
                <g transform="matrix(0.24646,0,0,0.12323,131.29,-708.501)">
                    <path d="M807.128,535.875C812.536,539.087 818.71,540.782 825,540.782C844.317,540.782 860,525.099 860,505.782C860,486.465 844.317,470.782 825,470.782C818.71,470.782 812.536,472.477 807.128,475.689C812.536,472.477 818.71,470.782 825,470.782C844.317,470.782 860,486.465 860,505.782C860,525.099 844.317,540.782 825,540.782C818.71,540.782 812.536,539.087 807.128,535.875Z" style="fill:none;stroke:#37474f;stroke-width:7.89px;"/>
                </g>
                <g transform="matrix(0.24646,0,0,0.12323,117.691,-693.922)">
                    <circle cx="825" cy="505.782" r="35" style="fill:none;stroke:#37474f;stroke-width:7.89px;"/>
                </g>
            </g>
        </g>
    </g>
</svg>
