<?xml version="1.0" encoding="UTF-8" standalone="no"?>
<!DOCTYPE svg PUBLIC "-//W3C//DTD SVG 1.1//EN" "http://www.w3.org/Graphics/SVG/1.1/DTD/svg11.dtd">
<svg width="100%" height="100%" viewBox="0 0 228 228" version="1.1" xmlns="http://www.w3.org/2000/svg" xmlns:xlink="http://www.w3.org/1999/xlink" xml:space="preserve" xmlns:serif="http://www.serif.com/" style="fill-rule:evenodd;clip-rule:evenodd;stroke-linejoin:round;">
    <g transform="matrix(1,0,0,1,-865.395,-1784.54)">
        <g transform="matrix(2.05776,0,0,2.14443,328.357,3115.86)">
            <g id="Branding" transform="matrix(1,0,0,0.539764,2.04676e-11,-341.29)">
                <g transform="matrix(0.159518,0,0,0.382274,219.947,-591.119)">
                    <path d="M825.496,273.53C825.496,249.54 799.241,230.063 766.902,230.063L440.827,230.063C408.488,230.063 382.233,249.54 382.233,273.53L382.233,515.428C382.233,539.419 408.488,558.896 440.827,558.896L766.902,558.896C799.241,558.896 825.496,539.419 825.496,515.428L825.496,273.53Z" style="fill:#fff;fill-rule:nonzero;"/>
                    <path d="M825.496,273.53C825.496,249.54 799.241,230.063 766.902,230.063L440.827,230.063C408.488,230.063 382.233,249.54 382.233,273.53L382.233,515.428C382.233,539.419 408.488,558.896 440.827,558.896L766.902,558.896C799.241,558.896 825.496,539.419 825.496,515.428L825.496,273.53ZM810.264,273.53L810.264,515.428C810.264,533.182 790.834,547.596 766.902,547.596C766.902,547.596 440.827,547.596 440.827,547.596C416.895,547.596 397.465,533.182 397.465,515.428L397.465,273.53C397.465,255.777 416.895,241.363 440.827,241.363C440.827,241.363 766.902,241.363 766.902,241.363C790.834,241.363 810.264,255.777 810.264,273.53Z"/>
                </g>
                <g transform="matrix(0.151425,0,0,0.342677,224.834,-578.82)">
                    <path d="M825.496,276.874C825.496,251.038 799.241,230.063 766.902,230.063L440.827,230.063C408.488,230.063 382.233,251.038 382.233,276.874L382.233,512.085C382.233,537.921 408.488,558.896 440.827,558.896L766.902,558.896C799.241,558.896 825.496,537.921 825.496,512.085L825.496,276.874ZM819.077,276.874L819.077,512.085C819.077,535.115 795.729,553.854 766.902,553.854L440.827,553.854C412,553.854 388.652,535.115 388.652,512.085C388.652,512.085 388.652,276.874 388.652,276.874C388.652,253.844 412,235.105 440.827,235.105C440.827,235.105 766.902,235.105 766.902,235.105C795.729,235.105 819.077,253.844 819.077,276.874Z"/>
                </g>
                <g transform="matrix(0.50506,0,0,0.897885,280.415,-502.796)">
                    <path d="M31,92L71,41L111,92L71,54L31,92ZM71.318,49.201L71,48.796L70.682,49.201C70.894,49.187 71.106,49.186 71.318,49.201Z"/>
                </g>
            </g>
        </g>
    </g>
</svg>
