<?xml version="1.0" encoding="UTF-8" standalone="no"?>
<!DOCTYPE svg PUBLIC "-//W3C//DTD SVG 1.1//EN" "http://www.w3.org/Graphics/SVG/1.1/DTD/svg11.dtd">
<svg width="100%" height="100%" viewBox="0 0 142 142" version="1.1" xmlns="http://www.w3.org/2000/svg" xmlns:xlink="http://www.w3.org/1999/xlink" xml:space="preserve" xmlns:serif="http://www.serif.com/" style="fill-rule:evenodd;clip-rule:evenodd;stroke-linecap:round;stroke-linejoin:round;stroke-miterlimit:1.5;">
    <g transform="matrix(1,0,0,1,-489,-329)">
        <g>
            <g transform="matrix(0.31584,0,0,0.395337,369.275,239.048)">
                <path d="M825.496,276.874C825.496,251.038 799.241,230.063 766.902,230.063L440.827,230.063C408.488,230.063 382.233,251.038 382.233,276.874L382.233,512.085C382.233,537.921 408.488,558.896 440.827,558.896L766.902,558.896C799.241,558.896 825.496,537.921 825.496,512.085L825.496,276.874Z" style="fill:none;stroke:black;stroke-width:5.59px;"/>
            </g>
            <g transform="matrix(0.31584,0,0,0.425748,369.275,232.051)">
                <path d="M825.496,273.53C825.496,249.54 799.241,230.063 766.902,230.063L440.827,230.063C408.488,230.063 382.233,249.54 382.233,273.53L382.233,515.428C382.233,539.419 408.488,558.896 440.827,558.896L766.902,558.896C799.241,558.896 825.496,539.419 825.496,515.428L825.496,273.53Z" style="fill:none;stroke:black;stroke-width:5.34px;"/>
            </g>
            <g transform="matrix(1,0,0,1,-1.13687e-13,1)">
                <path d="M520,420L560,369L600,420L560,382L520,420Z" style="fill:none;stroke:black;stroke-width:2px;"/>
            </g>
        </g>
    </g>
</svg>
